<svg xmlns="http://www.w3.org/2000/svg" xmlns:xlink="http://www.w3.org/1999/xlink" width="42" height="42" viewBox="0 0 42 42"><defs><linearGradient id="b" x1="868.253" x2="937.656" y1="521.354" y2="588.736" gradientTransform="translate(-1161.097 316.47) scale(1.34562)" gradientUnits="userSpaceOnUse" xlink:href="#a"/><linearGradient id="a"><stop offset="0" stop-color="#24f3d2"/><stop offset=".394" stop-color="#0674f0"/><stop offset=".507" stop-color="#6961b5"/><stop offset=".813" stop-color="#f34660"/><stop offset="1" stop-color="#ee078d"/></linearGradient></defs><g transform="translate(0 -1010.362)"><rect width="42" height="42" y="1010.362" fill="url(#b)" rx="8.876" ry="8.876"/><path style="line-height:normal;text-indent:0;text-align:start;text-decoration-line:none;text-decoration-style:solid;text-decoration-color:#000;text-transform:none;block-progression:tb;isolation:auto;mix-blend-mode:normal" fill="#fff" fill-rule="evenodd" d="m 22.735351,1018.1559 c -0.276131,0 -0.499972,0.2239 -0.5,0.5 l 0,0.5117 c -0.144337,0.05 -0.284377,0.1076 -0.421875,0.1738 l -0.359375,-0.3593 c -0.195265,-0.1952 -0.511766,-0.1952 -0.707031,0 l -1.060547,1.0605 c -0.195183,0.1953 -0.195183,0.5118 0,0.7071 l 0.361328,0.3613 c -0.06636,0.1369 -0.123997,0.2762 -0.173828,0.4199 l -0.513672,0 c -0.276131,0 -0.499972,0.2239 -0.5,0.5 l 0,1.5 c 2.8e-5,0.2761 0.223869,0.5 0.5,0.5 l 0.511719,0 c 0.04976,0.1452 0.107226,0.2855 0.173828,0.4238 l -0.359375,0.3594 c -0.195183,0.1953 -0.195183,0.5118 0,0.707 l 1.060547,1.0606 c 0.195265,0.1952 0.511766,0.1952 0.707031,0 l 0.359375,-0.3594 c 0.137414,0.067 0.277569,0.1238 0.421875,0.1738 l 0,0.5098 c 2.8e-5,0.2761 0.223869,0.5 0.5,0.5 l 1.5,0 c 0.276131,0 0.499972,-0.2239 0.5,-0.5 l 0,-0.5117 c 0.144419,-0.05 0.284309,-0.1076 0.421875,-0.1738 l 0.361328,0.3613 c 0.195265,0.1952 0.511767,0.1952 0.707034,0 l 1.060544,-1.0606 c 0.195186,-0.1952 0.195186,-0.5117 0,-0.707 l -0.361328,-0.3613 c 0.06674,-0.1376 0.125768,-0.2773 0.175784,-0.4219 l 0.509765,0 c 0.27613,0 0.499972,-0.2239 0.5,-0.5 l 0,-1.5 c -2.8e-5,-0.2761 -0.22387,-0.5 -0.5,-0.5 l -0.511719,0 c -0.0495,-0.1442 -0.105751,-0.2846 -0.171876,-0.4219 l 0.359375,-0.3593 c 0.195185,-0.1953 0.195185,-0.5118 0,-0.7071 l -1.060546,-1.0605 c -0.195265,-0.1952 -0.511767,-0.1952 -0.707032,0 l -0.361328,0.3613 c -0.137623,-0.067 -0.27733,-0.1257 -0.421875,-0.1758 l 0,-0.5117 c -2.8e-5,-0.2761 -0.223869,-0.5 -0.5,-0.5 z m 0.5,1 0.5,0 0,0.3379 c -3.69e-4,0.2335 0.160984,0.4363 0.388672,0.4883 0.315165,0.072 0.616856,0.1973 0.890625,0.3691 0.197544,0.1237 0.454373,0.095 0.619141,-0.07 l 0.238281,-0.2383 0.353516,0.3535 -0.236329,0.2364 c -0.163871,0.1644 -0.192993,0.42 -0.07031,0.6172 0.171109,0.2743 0.294314,0.577 0.365234,0.8925 0.05202,0.2277 0.254724,0.3891 0.488281,0.3887 l 0.337891,0 0,0.5 -0.337891,0 c -0.233409,7e-4 -0.435254,0.1629 -0.486328,0.3906 -0.07182,0.3151 -0.197282,0.6149 -0.36914,0.8887 -0.123732,0.1975 -0.09456,0.4544 0.07031,0.6191 l 0.238282,0.2383 -0.353516,0.3535 -0.236328,-0.2363 c -0.164768,-0.1649 -0.421597,-0.194 -0.619141,-0.07 -0.27431,0.1711 -0.5752,0.2942 -0.890625,0.3652 -0.228465,0.051 -0.390788,0.2542 -0.390625,0.4883 l 0,0.3379 -0.5,0 0,-0.3379 c -5.4e-4,-0.2328 -0.161695,-0.4345 -0.388672,-0.4863 -0.315157,-0.072 -0.614896,-0.1974 -0.888672,-0.3692 -0.197543,-0.1237 -0.454371,-0.094 -0.61914,0.07 l -0.238281,0.2382 -0.353516,-0.3535 0.236328,-0.2363 c 0.164876,-0.1648 0.194043,-0.4216 0.07031,-0.6191 -0.171106,-0.2743 -0.294314,-0.5753 -0.365232,-0.8907 -0.05124,-0.2284 -0.254141,-0.3908 -0.488281,-0.3906 l -0.339844,0 0,-0.5 0.337891,0 c 0.233556,4e-4 0.436261,-0.161 0.488281,-0.3887 0.07183,-0.3152 0.195338,-0.6149 0.367187,-0.8886 0.124235,-0.1971 0.09588,-0.4539 -0.06836,-0.6192 l -0.238281,-0.2383 0.353515,-0.3535 0.236329,0.2363 c 0.16446,0.1639 0.420081,0.193 0.617187,0.07 0.27431,-0.1711 0.5752,-0.2944 0.890625,-0.3653 0.228465,-0.051 0.390788,-0.2541 0.390625,-0.4883 z m -9.361327,1.3418 c -0.13762,0 0.160157,-0.029 -0.411551,0.051 -0.740977,0.1973 -1.286495,0.8954 -1.273995,1.6936 l 0,0.7168 c -2.3770615,0.6716 -4.2363295,2.6496 -4.2363295,5.1778 0,3.1159 2.7756425,5.4785 5.9472655,5.4785 1.542778,0 2.52539,1.0095 2.52539,2.0547 0,1.046 -0.981568,2.0527 -2.52539,2.0527 -1.543793,0 -2.523437,-1.0067 -2.523437,-2.0527 0.0051,-0.5311 -0.207514,-0.9947 -0.53711,-1.291 -0.331664,-0.2981 -0.756339,-0.4356 -1.1738275,-0.4356 -0.417489,0 -0.842073,0.1376 -1.173828,0.4356 -0.331154,0.2976 -0.54387,0.7647 -0.537109,1.2988 0.0031,2.5861 1.899401,4.4897 4.2343745,5.1738 l 0,0.7305 c -0.0076,0.5352 0.205439,1.0028 0.537109,1.3008 0.33167,0.2981 0.75639,0.4355 1.173828,0.4355 0.417439,0 0.842157,-0.1374 1.173828,-0.4355 0.331671,-0.298 0.546639,-0.7656 0.539063,-1.3008 l 0,-0.7324 c 2.376212,-0.672 4.236327,-2.6502 4.236327,-5.1778 0,-3.116 -2.777616,-5.4785 -5.949218,-5.4785 -1.542739,0 -2.523437,-1.0096 -2.523437,-2.0547 0,-1.0308 0.956729,-2.0152 2.466796,-2.0429 l 0.119141,0 c 1.507972,0.03 2.46289,1.0078 2.46289,2.0371 -0.0051,0.5311 0.207524,0.9947 0.53711,1.291 0.331665,0.2982 0.75634,0.4355 1.173828,0.4355 0.41749,0 0.842073,-0.1356 1.173828,-0.4336 0.33133,-0.2977 0.544108,-0.7643 0.537109,-1.2988 -0.002,-2.5874 -1.898606,-4.4915 -4.234375,-5.1758 l 0,-0.7148 c 0.01495,-0.9597 -0.778597,-1.7533 -1.738281,-1.7383 z m 9.611327,0.6387 c -0.902918,0 -1.644531,0.7416 -1.644531,1.6445 0,0.9029 0.741349,1.6465 1.644531,1.6465 0.903183,0 1.646484,-0.7436 1.646485,-1.6465 0,-0.9029 -0.743566,-1.6445 -1.646485,-1.6445 z m -9.595702,0.3633 0,0 0.0059,0 c 0.403548,0 0.723106,0.3118 0.716797,0.7168 l 0,0.01 0,1.0606 c -3.7e-4,0.2335 0.160983,0.4362 0.388672,0.4883 2.150653,0.4836 3.845702,2.1241 3.845702,4.3535 l 0.002,0.01 c 0.004,0.284 -0.0828,0.4313 -0.207031,0.5429 -0.124226,0.1116 -0.311595,0.1778 -0.505859,0.1778 -0.194265,0 -0.381802,-0.066 -0.50586,-0.1778 -0.124057,-0.1115 -0.209277,-0.2589 -0.205078,-0.5429 l 0,-0.01 c 0,-1.641 -1.494539,-2.9987 -3.443359,-3.0371 -0.01302,-5e-4 -0.02605,-5e-4 -0.03906,0 l -0.08008,0 c -0.01237,-5e-4 -0.02474,-5e-4 -0.03711,0 -1.952978,0.036 -3.449219,1.4003 -3.449219,3.0429 0,1.6631 1.527864,3.0547 3.523438,3.0547 2.679027,0 4.949217,1.9593 4.949217,4.4785 0,2.1617 -1.665565,3.8925 -3.839843,4.3496 -0.230794,0.049 -0.396048,0.2524 -0.396485,0.4883 l 0,1.0801 0,0.01 c 0.004,0.2841 -0.08288,0.4314 -0.207031,0.543 -0.124148,0.1116 -0.311674,0.1797 -0.505859,0.1797 -0.194186,0 -0.379758,-0.068 -0.503907,-0.1797 -0.124148,-0.1116 -0.211051,-0.2589 -0.207031,-0.543 l 0,-0.01 0,-1.0742 c 1.17e-4,-0.2342 -0.162207,-0.4371 -0.390672,-0.4883 -2.150701,-0.4858 -3.8457035,-2.1279 -3.8457035,-4.3574 l 0,-0.012 c -0.004,-0.284 0.08281,-0.4314 0.207032,-0.543 0.124226,-0.1116 0.311594,-0.1797 0.505859,-0.1797 0.194265,0 0.3798485,0.068 0.5039055,0.1797 0.124057,0.1115 0.211233,0.259 0.207033,0.543 l 0,0.012 c 0,1.6636 1.528819,3.0527 3.523437,3.0527 1.994637,0 3.525389,-1.3891 3.525389,-3.0527 0,-1.6632 -1.529854,-3.0547 -3.52539,-3.0547 -2.679004,0 -4.9472655,-1.9594 -4.9472655,-4.4785 0,-2.1617 1.6655515,-3.8904 3.8398435,-4.3477 0.231511,-0.049 0.39697,-0.2536 0.396485,-0.4902 l 0,-1.0645 0,-0.012 c -0.0062,-0.399 0.302178,-0.7164 0.701171,-0.7226 z m 9.595702,0.6367 c 0.356738,0 0.646485,0.2877 0.646485,0.6445 0,0.3567 -0.290011,0.6465 -0.646485,0.6465 -0.356471,0 -0.644531,-0.2898 -0.644531,-0.6465 0,-0.3568 0.287796,-0.6445 0.644531,-0.6445 z m 2.785156,5.2695 c -0.27613,0 -0.499972,0.2239 -0.5,0.5 l 0,0.8945 c -0.310307,0.096 -0.6103,0.2174 -0.898437,0.3672 l -0.628906,-0.6269 c -0.195265,-0.1952 -0.511767,-0.1952 -0.707032,0 l -1.542968,1.541 c -0.195183,0.1952 -0.195183,0.5117 0,0.707 l 0.630859,0.6309 c -0.150756,0.2879 -0.274351,0.5862 -0.371094,0.8965 l -0.892578,0 c -0.276131,0 -0.499972,0.2238 -0.5,0.5 l 0,2.1816 c 2.8e-5,0.2761 0.223869,0.5 0.5,0.5 l 0.894531,0 c 0.09587,0.3103 0.219274,0.6084 0.369141,0.8965 l -0.630859,0.6308 c -0.195183,0.1953 -0.195183,0.5118 0,0.7071 l 1.542968,1.541 c 0.195265,0.1952 0.511767,0.1952 0.707032,0 l 0.630859,-0.6289 c 0.28781,0.1507 0.586349,0.2744 0.896484,0.3711 l 0,0.8906 c 2.8e-5,0.2761 0.22387,0.5 0.5,0.5 l 2.181641,0 c 0.276131,0 0.499972,-0.2239 0.5,-0.5 l 0,-0.8926 c 0.310269,-0.096 0.608387,-0.2192 0.896484,-0.3691 l 0.628909,0.6289 c 0.195264,0.1952 0.511764,0.1952 0.707031,0 l 1.542969,-1.541 c 0.195183,-0.1953 0.195183,-0.5118 0,-0.7071 l -0.628909,-0.6308 c 0.150667,-0.2878 0.274404,-0.5863 0.371094,-0.8965 l 0.890625,0 c 0.276131,0 0.499972,-0.2239 0.5,-0.5 l 0,-2.1816 c -2.8e-5,-0.2762 -0.223869,-0.5 -0.5,-0.5 l -0.892578,0 c -0.09605,-0.3108 -0.218899,-0.6099 -0.369141,-0.8985 l 0.628909,-0.6289 c 0.195183,-0.1953 0.195183,-0.5118 0,-0.707 l -1.542969,-1.541 c -0.195266,-0.1952 -0.511767,-0.1952 -0.707031,0 l -0.628909,0.6289 c -0.287909,-0.1508 -0.586221,-0.2744 -0.896484,-0.3711 l 0,-0.8926 c -2.8e-5,-0.2761 -0.223869,-0.5 -0.5,-0.5 z m 0.5,1 1.181641,0 0,0.7188 c -3.69e-4,0.2335 0.160984,0.4362 0.388672,0.4882 0.483328,0.1101 0.945383,0.301 1.365234,0.5645 0.197544,0.1237 0.454373,0.094 0.619141,-0.07 l 0.505859,-0.5059 0.835938,0.834 -0.503906,0.5059 c -0.165511,0.1642 -0.195493,0.4211 -0.07227,0.6191 0.2624,0.4207 0.45373,0.8814 0.5625,1.3652 0.05108,0.2278 0.252919,0.3899 0.486328,0.3907 l 0.720703,0 0,1.1816 -0.71875,0 c -0.232826,5e-4 -0.434472,0.1617 -0.486328,0.3887 -0.110146,0.4833 -0.300899,0.9454 -0.564453,1.3652 -0.124235,0.1971 -0.09588,0.4539 0.06836,0.6191 l 0.507813,0.5079 -0.835938,0.8339 -0.503903,-0.5039 c -0.164768,-0.1648 -0.421597,-0.194 -0.619141,-0.07 -0.420678,0.2623 -0.881503,0.4518 -1.365234,0.5606 -0.227753,0.051 -0.389876,0.2529 -0.390625,0.4863 l 0,0.7207 -1.181641,0 0,-0.7187 c -5.4e-4,-0.2329 -0.161694,-0.4345 -0.38867,-0.4864 -0.483323,-0.1101 -0.945378,-0.3009 -1.365235,-0.5644 -0.197104,-0.1243 -0.453889,-0.096 -0.619141,0.068 l -0.507812,0.5059 -0.835938,-0.834 0.50586,-0.5059 c 0.164875,-0.1647 0.194042,-0.4216 0.07031,-0.6191 -0.262409,-0.4207 -0.451789,-0.8815 -0.560545,-1.3652 -0.05124,-0.2285 -0.254142,-0.3908 -0.488283,-0.3907 l -0.720703,0 0,-1.1816 0.71875,0 c 0.233557,4e-4 0.436261,-0.161 0.488281,-0.3887 0.110156,-0.4833 0.300909,-0.9454 0.564455,-1.3652 0.12373,-0.1975 0.09456,-0.4544 -0.07031,-0.6191 l -0.507813,-0.5079 0.835938,-0.8339 0.505859,0.5039 c 0.164462,0.1638 0.420082,0.193 0.617188,0.07 0.420677,-0.2624 0.883455,-0.4518 1.367187,-0.5606 0.227753,-0.051 0.389877,-0.2529 0.390625,-0.4863 z m 0.589844,3 c -1.372104,0 -2.498047,1.1278 -2.498047,2.5 0,1.3721 1.125577,2.5 2.498047,2.5 1.372471,0 2.5,-1.1279 2.5,-2.5 0,-1.3722 -1.127893,-2.5 -2.5,-2.5 z m 0,1 c 0.826001,0 1.5,0.6739 1.5,1.5 0,0.8259 -0.674363,1.5 -1.5,1.5 -0.825634,0 -1.498047,-0.6741 -1.498047,-1.5 0,-0.8261 0.672047,-1.5 1.498047,-1.5 z" color="#000" font-family="sans-serif" font-weight="400" overflow="visible" white-space="normal"/></g></svg>